HIERARCHY
ROOT Hips
{
    OFFSET 0.000000 0.000000 0.000000
    CHANNELS 6 Xposition Yposition Zposition Zrotation Xrotation Yrotation
    JOINT Spine
    {
        OFFSET -0.000000 7.305679 0.000000
        CHANNELS 3 Zrotation Xrotation Yrotation
        JOINT Spine1
        {
            OFFSET -0.000000 20.356625 0.000000
            CHANNELS 3 Zrotation Xrotation Yrotation
            JOINT Neck
            {
                OFFSET -0.000000 22.138498 0.000000
                CHANNELS 3 Zrotation Xrotation Yrotation
                JOINT Head
                {
                    OFFSET -0.000000 13.809516 1.781873
                    CHANNELS 3 Zrotation Xrotation Yrotation
                    End Site
                    {
                        OFFSET -0.000000 17.818729 0.000000
                    }
                }
            }
            JOINT LeftShoulder
            {
                OFFSET 3.599131 17.989975 0.023592
                CHANNELS 3 Zrotation Xrotation Yrotation
                JOINT LeftArm
                {
                    OFFSET 12.560995 0.000000 0.000000
                    CHANNELS 3 Zrotation Xrotation Yrotation
                    JOINT LeftForeArm
                    {
                        OFFSET 22.903347 0.000000 0.000000
                        CHANNELS 3 Zrotation Xrotation Yrotation
                        JOINT LeftHand
                        {
                            OFFSET 21.865294 0.000000 0.000000
                            CHANNELS 3 Zrotation Xrotation Yrotation
                            JOINT LeftHandThumb1
                            {
                                OFFSET 1.853706 -2.106484 2.949078
                                CHANNELS 3 Zrotation Xrotation Yrotation
                                JOINT LeftHandThumb2
                                {
                                    OFFSET 2.049154 0.000000 1.336405
                                    CHANNELS 3 Zrotation Xrotation Yrotation
                                    JOINT LeftHandThumb3
                                    {
                                        OFFSET 2.672809 0.000000 0.000000
                                        CHANNELS 3 Zrotation Xrotation Yrotation
                                        End Site
                                        {
                                            OFFSET 2.381303 0.000000 0.000000
                                        }
                                    }
                                }
                            }
                            JOINT LeftHandIndex1
                            {
                                OFFSET 7.583345 0.000000 2.949078
                                CHANNELS 3 Zrotation Xrotation Yrotation
                                JOINT LeftHandIndex2
                                {
                                    OFFSET 4.454682 0.000000 0.000000
                                    CHANNELS 3 Zrotation Xrotation Yrotation
                                    JOINT LeftHandIndex3
                                    {
                                        OFFSET 2.227341 0.000000 0.000000
                                        CHANNELS 3 Zrotation Xrotation Yrotation
                                        End Site
                                        {
                                            OFFSET 1.984419 0.000000 0.000000
                                        }
                                    }
                                }
                            }
                            JOINT LeftHandMiddle1
                            {
                                OFFSET 7.583345 0.000000 0.977409
                                CHANNELS 3 Zrotation Xrotation Yrotation
                                JOINT LeftHandMiddle2
                                {
                                    OFFSET 4.900151 0.000000 0.000000
                                    CHANNELS 3 Zrotation Xrotation Yrotation
                                    JOINT LeftHandMiddle3
                                    {
                                        OFFSET 2.672809 0.000000 0.000000
                                        CHANNELS 3 Zrotation Xrotation Yrotation
                                        End Site
                                        {
                                            OFFSET 2.381303 0.000000 0.000000
                                        }
                                    }
                                }
                            }
                            JOINT LeftHandRing1
                            {
                                OFFSET 7.162047 0.000000 -0.977409
                                CHANNELS 3 Zrotation Xrotation Yrotation
                                JOINT LeftHandRing2
                                {
                                    OFFSET 4.454682 0.000000 0.000000
                                    CHANNELS 3 Zrotation Xrotation Yrotation
                                    JOINT LeftHandRing3
                                    {
                                        OFFSET 2.227341 0.000000 0.000000
                                        CHANNELS 3 Zrotation Xrotation Yrotation
                                        End Site
                                        {
                                            OFFSET 1.984419 0.000000 0.000000
                                        }
                                    }
                                }
                            }
                            JOINT LeftHandPinky1
                            {
                                OFFSET 6.740750 0.000000 -2.949078
                                CHANNELS 3 Zrotation Xrotation Yrotation
                                JOINT LeftHandPinky2
                                {
                                    OFFSET 3.563746 0.000000 0.000000
                                    CHANNELS 3 Zrotation Xrotation Yrotation
                                    JOINT LeftHandPinky3
                                    {
                                        OFFSET 1.781873 0.000000 0.000000
                                        CHANNELS 3 Zrotation Xrotation Yrotation
                                        End Site
                                        {
                                            OFFSET 1.587536 0.000000 0.000000
                                        }
                                    }
                                }
                            }
                        }
                    }
                }
            }
            JOINT RightShoulder
            {
                OFFSET -3.506995 17.989975 0.023592
                CHANNELS 3 Zrotation Xrotation Yrotation
                JOINT RightArm
                {
                    OFFSET -12.560995 0.000000 0.000000
                    CHANNELS 3 Zrotation Xrotation Yrotation
                    JOINT RightForeArm
                    {
                        OFFSET -22.903347 0.000000 0.000000
                        CHANNELS 3 Zrotation Xrotation Yrotation
                        JOINT RightHand
                        {
                            OFFSET -21.865294 0.000000 0.000000
                            CHANNELS 3 Zrotation Xrotation Yrotation
                            JOINT RightHandThumb1
                            {
                                OFFSET -1.853706 -2.106484 2.949078
                                CHANNELS 3 Zrotation Xrotation Yrotation
                                JOINT RightHandThumb2
                                {
                                    OFFSET -2.049154 0.000000 1.336405
                                    CHANNELS 3 Zrotation Xrotation Yrotation
                                    JOINT RightHandThumb3
                                    {
                                        OFFSET -2.672809 0.000000 0.000000
                                        CHANNELS 3 Zrotation Xrotation Yrotation
                                        End Site
                                        {
                                            OFFSET -2.381303 0.000000 0.000000
                                        }
                                    }
                                }
                            }
                            JOINT RightHandIndex1
                            {
                                OFFSET -7.583345 0.000000 2.949078
                                CHANNELS 3 Zrotation Xrotation Yrotation
                                JOINT RightHandIndex2
                                {
                                    OFFSET -4.454682 0.000000 0.000000
                                    CHANNELS 3 Zrotation Xrotation Yrotation
                                    JOINT RightHandIndex3
                                    {
                                        OFFSET -2.227341 0.000000 0.000000
                                        CHANNELS 3 Zrotation Xrotation Yrotation
                                        End Site
                                        {
                                            OFFSET -1.984419 0.000000 0.000000
                                        }
                                    }
                                }
                            }
                            JOINT RightHandMiddle1
                            {
                                OFFSET -7.583345 0.000000 0.977409
                                CHANNELS 3 Zrotation Xrotation Yrotation
                                JOINT RightHandMiddle2
                                {
                                    OFFSET -4.900151 0.000000 0.000000
                                    CHANNELS 3 Zrotation Xrotation Yrotation
                                    JOINT RightHandMiddle3
                                    {
                                        OFFSET -2.672809 0.000000 0.000000
                                        CHANNELS 3 Zrotation Xrotation Yrotation
                                        End Site
                                        {
                                            OFFSET -2.381303 0.000000 0.000000
                                        }
                                    }
                                }
                            }
                            JOINT RightHandRing1
                            {
                                OFFSET -7.162047 0.000000 -0.977409
                                CHANNELS 3 Zrotation Xrotation Yrotation
                                JOINT RightHandRing2
                                {
                                    OFFSET -4.454682 0.000000 0.000000
                                    CHANNELS 3 Zrotation Xrotation Yrotation
                                    JOINT RightHandRing3
                                    {
                                        OFFSET -2.227341 0.000000 0.000000
                                        CHANNELS 3 Zrotation Xrotation Yrotation
                                        End Site
                                        {
                                            OFFSET -1.984419 0.000000 0.000000
                                        }
                                    }
                                }
                            }
                            JOINT RightHandPinky1
                            {
                                OFFSET -6.740750 0.000000 -2.949078
                                CHANNELS 3 Zrotation Xrotation Yrotation
                                JOINT RightHandPinky2
                                {
                                    OFFSET -3.563746 0.000000 0.000000
                                    CHANNELS 3 Zrotation Xrotation Yrotation
                                    JOINT RightHandPinky3
                                    {
                                        OFFSET -1.781873 0.000000 0.000000
                                        CHANNELS 3 Zrotation Xrotation Yrotation
                                        End Site
                                        {
                                            OFFSET -1.587536 0.000000 0.000000
                                        }
                                    }
                                }
                            }
                        }
                    }
                }
            }
        }
    }
    JOINT LeftUpLeg
    {
        OFFSET 8.909365 0.000000 0.000000
        CHANNELS 3 Zrotation Xrotation Yrotation
        JOINT LeftLeg
        {
            OFFSET -0.000000 -38.765560 0.000000
            CHANNELS 3 Zrotation Xrotation Yrotation
            JOINT LeftFoot
            {
                OFFSET -0.000000 -35.244961 0.000000
                CHANNELS 3 Zrotation Xrotation Yrotation
                JOINT LeftToeBase
                {
                    OFFSET -0.000000 -5.791087 13.364048
                    CHANNELS 3 Zrotation Xrotation Yrotation
                    End Site
                    {
                        OFFSET -0.000000 0.000000 3.563746
                    }
                }
            }
        }
    }
    JOINT RightUpLeg
    {
        OFFSET -8.909365 0.000000 0.000000
        CHANNELS 3 Zrotation Xrotation Yrotation
        JOINT RightLeg
        {
            OFFSET -0.000000 -38.765560 0.000000
            CHANNELS 3 Zrotation Xrotation Yrotation
            JOINT RightFoot
            {
                OFFSET -0.000000 -35.244961 0.000000
                CHANNELS 3 Zrotation Xrotation Yrotation
                JOINT RightToeBase
                {
                    OFFSET -0.000000 -5.791087 13.364048
                    CHANNELS 3 Zrotation Xrotation Yrotation
                    End Site
                    {
                        OFFSET -0.000000 0.000000 3.563746
                    }
                }
            }
        }
    }
}
MOTION
Frames:    4
Frame Time:    0.008333
1.749827    81.893715    102.240036    0.966446    2.095705    -1.476318    -0.758708    2.836943    -1.636616    -2.752850    0.760763    -0.533455    1.695500    -5.762610    -2.191697    1.285606    -6.645236    -2.218259    2.201339    2.688554    -11.785332    -87.226288    24.288443    -1.221168    9.626424    -9.244032    1.439419    3.743978    -31.611477    11.889172    0.014150    0.209642    0.266028    -0.000000    0.000000    0.331594    -0.000000    0.000000    0.663188    -10.336645    0.919598    -5.028720    -20.754053    0.000000    0.000000    -10.377028    0.000000    0.000000    -21.511007    -2.182049    1.503646    -43.203503    0.000000    0.000000    -21.601751    0.000000    0.000000    -32.316269    -6.472608    7.341264    -65.652954    0.000000    0.000000    -32.826469    0.000000    0.000000    -43.082363    -11.937061    12.471198    -88.782669    0.000000    0.000000    -44.391331    0.000000    0.000000    -3.843498    -2.580844    0.701060    97.766190    51.567272    -9.791380    -12.383316    -34.933899    2.673876    11.517002    -40.247463    -5.788719    0.674327    -1.127631    2.224399    0.000000    0.000000    0.000000    0.000000    0.000000    0.000000    15.970896    0.000000    -0.000000    31.941792    0.000000    -0.000000    15.970896    0.000000    -0.000000    22.916237    -1.057675    -1.831682    45.879166    0.000000    -0.000000    22.939583    0.000000    -0.000000    29.828501    -2.328588    -3.523056    59.816528    0.000000    -0.000000    29.908260    0.000000    -0.000000    36.917202    -3.840495    -5.094566    74.176247    0.000000    -0.000000    37.088116    0.000000    -0.000000    -2.564647    -7.156746    -1.994215    1.462716    8.848486    12.351723    -2.502599    -3.026385    -9.541036    0.143821    0.017645    -0.354478    0.605505    -7.960016    0.225813    -0.304382    13.763883    -5.276117    0.549325    -8.620233    3.851165    -0.226025    -1.842103    0.170487    
1.678717    81.899300    102.180252    0.988977    2.098765    -1.273939    -0.723375    2.938499    -1.646100    -2.784307    0.704828    -0.537687    1.689706    -5.836650    -2.253152    1.223121    -6.762371    -2.277643    2.192211    2.639465    -11.861686    -87.223755    24.402367    -1.299715    9.646408    -9.129534    1.441266    3.854065    -31.525730    11.965086    0.032998    0.208046    0.287342    -0.000000    0.000000    0.344841    -0.000000    0.000000    0.689682    -10.329486    0.905196    -4.953853    -20.737288    0.000000    0.000000    -10.368644    0.000000    0.000000    -21.497616    -2.203219    1.565756    -43.181026    0.000000    0.000000    -21.590509    0.000000    0.000000    -32.297207    -6.497376    7.390123    -65.624763    0.000000    0.000000    -32.812378    0.000000    0.000000    -43.058800    -11.962437    12.506489    -88.748619    0.000000    0.000000    -44.374310    0.000000    0.000000    -3.861304    -2.544047    0.669289    97.782623    51.513531    -9.775791    -12.416854    -35.182858    2.729499    11.430036    -40.261806    -5.863845    0.663405    -1.134976    2.228451    0.000000    0.000000    0.000000    0.000000    0.000000    0.000000    15.994869    0.000000    -0.000000    31.989738    0.000000    -0.000000    15.994869    0.000000    -0.000000    22.968060    -1.067084    -1.841985    45.983505    0.000000    -0.000000    22.991756    0.000000    -0.000000    29.907724    -2.349401    -3.541850    59.977295    0.000000    -0.000000    29.988647    0.000000    -0.000000    37.024254    -3.874791    -5.119907    74.395126    0.000000    -0.000000    37.197552    0.000000    -0.000000    -2.531518    -7.624565    -2.168465    1.374551    9.680152    12.220588    -2.556511    -3.391919    -9.456298    0.145906    0.016068    -0.359848    0.604173    -7.883638    0.215718    -0.246732    13.557135    -5.325699    0.456372    -8.515663    3.692118    -0.229800    -1.831306    0.177626    
1.608216    81.903984    102.119888    1.009053    2.102470    -1.078687    -0.685084    3.040649    -1.651103    -2.817753    0.647967    -0.540534    1.688301    -5.910563    -2.314354    1.159483    -6.877721    -2.336457    2.183410    2.590080    -11.935224    -87.221985    24.521292    -1.376659    9.666890    -9.015394    1.440638    3.976579    -31.441372    12.044611    0.046352    0.205103    0.300286    -0.000000    0.000000    0.351946    -0.000000    0.000000    0.703892    -10.326833    0.892194    -4.884327    -20.729774    0.000000    0.000000    -10.364885    0.000000    0.000000    -21.487537    -2.223056    1.623927    -43.164928    0.000000    0.000000    -21.582464    0.000000    0.000000    -32.280128    -6.521018    7.436502    -65.600098    0.000000    0.000000    -32.800049    0.000000    0.000000    -43.035656    -11.987054    12.540874    -88.715096    0.000000    0.000000    -44.357548    0.000000    0.000000    -3.878973    -2.509229    0.639603    97.798256    51.461056    -9.761332    -12.447186    -35.410069    2.784755    11.341345    -40.277962    -5.934129    0.658331    -1.142123    2.236207    0.000000    0.000000    0.000000    0.000000    0.000000    0.000000    16.026678    0.000000    -0.000000    32.053360    0.000000    -0.000000    16.026678    0.000000    -0.000000    23.026699    -1.076019    -1.850967    46.101463    0.000000    -0.000000    23.050732    0.000000    -0.000000    29.992788    -2.369084    -3.558078    60.149590    0.000000    -0.000000    30.074787    0.000000    -0.000000    37.136204    -3.907114    -5.141508    74.623390    0.000000    -0.000000    37.311695    0.000000    -0.000000    -2.497041    -8.091938    -2.333371    1.283245    10.507818    12.080742    -2.602276    -3.758183    -9.363184    0.148273    0.015076    -0.365840    0.606584    -7.815903    0.214444    -0.190619    13.364029    -5.391949    0.367312    -8.416286    3.548989    -0.233973    -1.820976    0.185351    
1.538873    81.906883    102.058449    1.024619    2.107214    -0.896648    -0.642829    3.144579    -1.649100    -2.852594    0.588650    -0.540958    1.693547    -5.985253    -2.374240    1.095005    -6.988496    -2.393524    2.174741    2.540920    -12.002026    -87.222023    24.647556    -1.451003    9.688843    -8.900065    1.435424    4.120748    -31.360533    12.129992    0.052333    0.199942    0.301520    -0.000000    0.000000    0.350790    -0.000000    0.000000    0.701580    -10.331104    0.881601    -4.824586    -20.736488    0.000000    0.000000    -10.368244    0.000000    0.000000    -21.482382    -2.239523    1.673469    -43.158035    0.000000    0.000000    -21.579021    0.000000    0.000000    -32.265953    -6.540370    7.475700    -65.579605    0.000000    0.000000    -32.789803    0.000000    0.000000    -43.013145    -12.006545    12.569912    -88.680580    0.000000    0.000000    -44.340298    0.000000    0.000000    -3.897318    -2.478219    0.614757    97.813042    51.413467    -9.749755    -12.473070    -35.599457    2.837554    11.257224    -40.296764    -5.991260    0.661585    -1.149521    2.250077    0.000000    0.000000    0.000000    0.000000    0.000000    0.000000    16.066757    0.000000    -0.000000    32.133514    0.000000    -0.000000    16.066757    0.000000    -0.000000    23.092590    -1.084044    -1.857861    46.233807    0.000000    -0.000000    23.116905    0.000000    -0.000000    30.084137    -2.386681    -3.570270    60.334103    0.000000    -0.000000    30.167049    0.000000    -0.000000    37.253513    -3.935874    -5.157236    74.861679    0.000000    -0.000000    37.430840    0.000000    -0.000000    -2.457362    -8.559299    -2.482828    1.185667    11.331755    11.930538    -2.634075    -4.127760    -9.258730    0.151027    0.014412    -0.372753    0.615204    -7.764530    0.229385    -0.135605    13.197458    -5.485613    0.284041    -8.327394    3.431132    -0.238368    -1.811871    0.193303    
